<svg width="24" height="24" viewBox="0 0 24 24" fill="none" xmlns="http://www.w3.org/2000/svg">
<path d="M23.1785 6.49486L17.0642 0.141469C16.9772 0.0510937 16.8571 0 16.7316 0H7.61867C6.59881 0 5.76908 0.829406 5.76908 1.84884V8.3077H2.07594C1.3129 8.3077 0.692139 8.92828 0.692139 9.69112V16.6166C0.692139 17.3794 1.3129 18 2.07594 18H5.76908V22.1544C5.76908 23.172 6.59881 24 7.61867 24H21.458C22.4778 24 23.3075 23.1725 23.3075 22.1554V6.81492C23.3075 6.69558 23.2613 6.58088 23.1785 6.49486ZM16.846 1.24598L21.8653 6.46153H16.846V1.24598ZM2.07594 17.0769C1.82187 17.0769 1.61525 16.8705 1.61525 16.6166V9.69112C1.61525 9.4373 1.82192 9.23077 2.07594 9.23077H14.5392C14.7932 9.23077 14.9998 9.4373 14.9998 9.69112V16.6166C14.9998 16.8705 14.7932 17.0769 14.5392 17.0769H2.07594ZM22.3844 22.1554C22.3844 22.6635 21.9688 23.0769 21.4579 23.0769H7.61867C7.10778 23.0769 6.69214 22.6631 6.69214 22.1544V18H14.5392C15.3022 18 15.923 17.3794 15.923 16.6166V9.69112C15.923 8.92828 15.3022 8.3077 14.5392 8.3077H6.69214V1.84884C6.69214 1.33833 7.10778 0.923062 7.61867 0.923062H15.9229V6.92306C15.9229 7.17797 16.1296 7.38459 16.3844 7.38459H22.3844V22.1554Z" fill="white"/>
<path d="M6.20994 11.714C6.0567 11.5148 5.86648 11.3854 5.63933 11.326C5.49149 11.2863 5.17419 11.2665 4.68739 11.2665H3.40283V15.231H4.20332V13.7355H4.72527C5.08766 13.7355 5.36441 13.7166 5.55552 13.6787C5.69614 13.6481 5.83452 13.5854 5.97064 13.4907C6.10677 13.3961 6.21898 13.2658 6.30734 13.1C6.3957 12.9341 6.43986 12.7295 6.43986 12.4861C6.43981 12.1706 6.36317 11.9133 6.20994 11.714ZM5.52439 12.8052C5.46402 12.8936 5.38063 12.9585 5.27422 13C5.16781 13.0414 4.95692 13.0622 4.64141 13.0622H4.20332V11.9372H4.59003C4.8785 11.9372 5.0705 11.9462 5.16603 11.9642C5.29583 11.9877 5.40313 12.0462 5.48783 12.14C5.57258 12.2337 5.61495 12.3528 5.61495 12.4969C5.615 12.6141 5.58477 12.7169 5.52439 12.8052Z" fill="white"/>
<path d="M10.2881 12.3496C10.2015 12.0963 10.0753 11.8822 9.90946 11.7073C9.74362 11.5324 9.54435 11.4107 9.3118 11.3422C9.13874 11.2917 8.88721 11.2665 8.5573 11.2665H7.09424V15.231H8.60057C8.89626 15.231 9.13241 15.2031 9.30908 15.1472C9.54529 15.0715 9.73279 14.966 9.87158 14.8308C10.0555 14.6523 10.197 14.4188 10.2962 14.1303C10.3773 13.8941 10.4179 13.6129 10.4179 13.2866C10.4179 12.9152 10.3746 12.6029 10.2881 12.3496ZM9.50919 13.9776C9.4551 14.1552 9.38526 14.2827 9.29961 14.3602C9.21397 14.4378 9.10626 14.4927 8.97646 14.5252C8.87732 14.5504 8.71593 14.5631 8.49238 14.5631H7.89472V11.9372H8.2544C8.58069 11.9372 8.79979 11.9498 8.91154 11.975C9.06116 12.0075 9.18468 12.0697 9.28204 12.1616C9.3794 12.2536 9.4551 12.3816 9.50919 12.5456C9.56329 12.7097 9.59033 12.945 9.59033 13.2515C9.59033 13.558 9.56329 13.8 9.50919 13.9776Z" fill="white"/>
<path d="M13.8199 11.9372V11.2665H11.1021V15.231H11.9025V13.5462H13.5576V12.8756H11.9025V11.9372H13.8199Z" fill="white"/>
</svg>
