<svg width="12" height="19" viewBox="0 0 12 19" fill="none" xmlns="http://www.w3.org/2000/svg">
<path d="M11.8796 4.30465C11.7995 4.22369 11.697 4.18328 11.5724 4.18328H9.28741C9.13586 3.43683 8.85078 2.78888 8.43211 2.24014H11.5455C11.6705 2.24014 11.7727 2.19968 11.853 2.11891C11.9328 2.03799 11.9729 1.93444 11.9729 1.80852V0.431807C11.9729 0.305801 11.9328 0.202433 11.853 0.121422C11.7726 0.0406001 11.6704 0 11.5454 0H0.427557C0.302777 0 0.200416 0.0406001 0.120193 0.121375C0.0402049 0.202386 0 0.305753 0 0.43176V2.22648C0 2.34342 0.0423109 2.44461 0.126933 2.53006C0.211555 2.61552 0.311763 2.65824 0.427557 2.65824H2.36521C4.24482 2.65824 5.43861 3.16638 5.94634 4.18304H0.427557C0.302777 4.18304 0.200275 4.22345 0.120193 4.30442C0.0402049 4.38547 0 4.48879 0 4.6148V5.99133C0 6.11724 0.0400177 6.22075 0.120193 6.30152C0.200416 6.38258 0.302964 6.4229 0.427557 6.4229H6.1337C5.93768 7.16079 5.48106 7.72295 4.76383 8.10981C4.04655 8.49672 3.10022 8.69017 1.92422 8.69017H0.427557C0.311763 8.69017 0.211555 8.73295 0.126933 8.81835C0.0422641 8.90385 0 9.0051 0 9.12193V10.8359C0 10.953 0.0400177 11.0519 0.120193 11.1328C1.83056 12.968 4.04889 15.5362 6.77491 18.8381C6.85518 18.9461 6.96648 19 7.10905 19H9.71474C9.902 19 10.0313 18.9193 10.1023 18.757C10.1914 18.5951 10.1739 18.4421 10.0488 18.2982C7.44782 15.0774 5.40313 12.6665 3.91536 11.0652C5.42985 10.8853 6.65926 10.3904 7.60363 9.58092C8.54786 8.77133 9.12238 7.71856 9.32743 6.42314H11.5724C11.697 6.42314 11.7995 6.38277 11.8796 6.30176C11.9598 6.22099 12 6.11748 12 5.99156V4.61518C12 4.48903 11.9598 4.38566 11.8796 4.30465Z" fill="#1E2629"/>
</svg>
