<svg width="30" height="16" viewBox="0 0 30 16" fill="none" xmlns="http://www.w3.org/2000/svg">
<path d="M29.3353 8.13277L27.9006 3.1782C27.7885 2.75167 27.405 2.45281 26.964 2.44816H21.5438C20.9892 2.4634 20.5513 2.9242 20.5645 3.47883V9.30299H16.6347C16.8573 9.01472 17.0121 8.68 17.0876 8.32373H19.0956C19.366 8.32373 19.5852 8.1045 19.5852 7.8341V4.40668C19.5852 4.17723 19.4259 3.97856 19.2019 3.9288L14.9337 2.98038L12.0968 0.143462C12.0051 0.0517791 11.8808 0.000183612 11.7511 0H3.42742C3.29754 0 3.17305 0.0516567 3.08125 0.143462L0.143462 3.08125C0.0516561 3.17306 0 3.29754 0 3.42742V7.34447C0 7.56903 0.152826 7.76482 0.370651 7.81941L1.99818 8.22629C2.06184 8.61769 2.22072 8.98743 2.46089 9.30299H0.979262C0.708863 9.30299 0.489631 9.52223 0.489631 9.79262V13.22C0.489631 13.4904 0.708863 13.7097 0.979262 13.7097H3.47638C3.74543 15.0347 5.03769 15.8907 6.36276 15.6217C7.32617 15.4261 8.07916 14.6731 8.27476 13.7097H9.35195C9.62101 15.0347 10.9133 15.8907 12.2383 15.6217C13.2017 15.4261 13.9547 14.6731 14.1503 13.7097H22.572C22.841 15.0347 24.1333 15.8907 25.4584 15.6217C26.4218 15.4261 27.1748 14.6731 27.3704 13.7097H28.8882C29.1586 13.7097 29.3779 13.4904 29.3779 13.22V8.4339C29.3778 8.33205 29.3635 8.23064 29.3353 8.13277ZM18.606 7.34447H17.0881C17.0531 7.1761 17 7.01195 16.93 6.85484H18.606V7.34447ZM14.6889 3.9288L18.606 4.79839V5.87557H16.1578V5.8883C15.7366 5.56429 15.2204 5.38772 14.6889 5.38594V3.9288ZM16.1578 7.8341C16.1578 8.64536 15.5002 9.30299 14.6889 9.30299C13.8777 9.30299 13.22 8.64536 13.22 7.8341C13.22 7.02284 13.8777 6.36521 14.6889 6.36521C15.5002 6.36521 16.1578 7.02284 16.1578 7.8341ZM7.8341 0.979262H11.5484L13.507 2.93779H7.8341V0.979262ZM7.8341 3.91705H13.7097V5.59355C12.9805 5.91254 12.4513 6.56516 12.2897 7.34447H7.8341V3.91705ZM12.7431 9.30299H6.35247C6.57507 9.01472 6.72986 8.68 6.80538 8.32373H12.2897C12.3654 8.68006 12.5204 9.01478 12.7431 9.30299ZM3.63012 0.979262H6.85483V2.93779H1.6716L3.63012 0.979262ZM2.04421 7.22842H2.04372L0.979262 6.96207V3.91705H6.85483V7.34447H6.80587C6.53908 6.02228 5.25093 5.16677 3.92874 5.43356C3.00756 5.61944 2.27476 6.3174 2.04421 7.22842ZM5.87557 7.8341C5.87557 8.64536 5.21794 9.30299 4.40668 9.30299C3.59542 9.30299 2.93779 8.64536 2.93779 7.8341C2.93779 7.02284 3.59542 6.36521 4.40668 6.36521C5.21794 6.36521 5.87557 7.02284 5.87557 7.8341ZM5.87557 14.6889C5.06431 14.6889 4.40668 14.0313 4.40668 13.22C4.40668 12.4088 5.06431 11.7511 5.87557 11.7511C6.68683 11.7511 7.34447 12.4088 7.34447 13.22C7.34447 14.0313 6.68683 14.6889 5.87557 14.6889ZM11.7511 14.6889C10.9399 14.6889 10.2823 14.0313 10.2823 13.22C10.2823 12.4088 10.9399 11.7511 11.7511 11.7511C12.5624 11.7511 13.22 12.4088 13.22 13.22C13.22 14.0313 12.5624 14.6889 11.7511 14.6889ZM20.5645 12.7304H14.1503C13.8813 11.4053 12.589 10.5493 11.264 10.8184C10.3006 11.014 9.54756 11.767 9.35195 12.7304H8.27476C8.00571 11.4053 6.71345 10.5493 5.38839 10.8184C4.42498 11.014 3.67199 11.767 3.47638 12.7304H1.46889V10.2823H20.5645V12.7304ZM27.5133 5.36685L28.0843 7.34447H23.5023V5.38594H27.4193C27.4512 5.38282 27.4827 5.37646 27.5133 5.36685ZM24.9712 14.6889C24.1599 14.6889 23.5023 14.0313 23.5023 13.22C23.5023 12.4088 24.1599 11.7511 24.9712 11.7511C25.7824 11.7511 26.4401 12.4088 26.4401 13.22C26.4401 14.0313 25.7824 14.6889 24.9712 14.6889ZM28.3986 10.2823H27.4193V9.79262H28.3986V10.2823ZM28.3986 8.81336H26.9297C26.6593 8.81336 26.4401 9.03259 26.4401 9.30299V10.7719C26.4401 11.0423 26.6593 11.2615 26.9297 11.2615H28.3986V12.7304H27.3704C27.1013 11.4053 25.8091 10.5493 24.484 10.8184C23.5206 11.014 22.7676 11.767 22.572 12.7304H21.5438V3.47883C21.5438 3.44749 21.556 3.42987 21.5472 3.42742L26.9601 3.45043L27.2362 4.40668H23.0127C22.7423 4.40668 22.523 4.62591 22.523 4.89631V7.8341C22.523 8.1045 22.7423 8.32373 23.0127 8.32373H28.3668L28.3986 8.4339V8.81336Z" fill="#3DBB7C"/>
</svg>
