<svg width="18" height="18" viewBox="0 0 18 18" fill="none" xmlns="http://www.w3.org/2000/svg">
<path d="M12.9509 4.14457C12.9051 3.99759 12.7691 3.89746 12.6151 3.89746H5.38452C5.23061 3.89746 5.09459 3.99759 5.04882 4.14457L3.77613 8.23428C3.70684 8.457 3.87879 8.69029 4.11183 8.69029H13.8878C14.1209 8.69029 14.2928 8.457 14.2235 8.23428L12.9509 4.14457ZM4.58943 7.98717L5.64334 4.60058H12.3564L13.4103 7.98717H4.58943Z" fill="#60626E"/>
<path d="M16.9461 4.96826H16.1355C15.9777 4.96826 15.8272 5.00029 15.6902 5.05812V0.928367C15.6902 0.416459 15.2736 0 14.7615 0H10.6787C10.4845 0 10.3271 0.157394 10.3271 0.351561C10.3271 0.545728 10.4845 0.703122 10.6787 0.703122H14.7615C14.8859 0.703122 14.9872 0.804161 14.9872 0.928367V5.93242L14.8932 5.63067L14.2008 3.40561C14.0293 2.8545 13.5262 2.48424 12.9491 2.48424H5.05084C4.47365 2.48424 3.97064 2.8545 3.79915 3.40561L3.06122 5.77692V0.928367C3.06122 0.804161 3.16226 0.703122 3.28646 0.703122H7.57129C7.76542 0.703122 7.92285 0.545728 7.92285 0.351561C7.92285 0.157394 7.76542 0 7.57129 0H3.28643C2.77452 0 2.35806 0.416459 2.35806 0.928367V5.07995C2.20844 5.00841 2.04106 4.96826 1.86443 4.96826H1.05384C0.472744 4.96826 0 5.44101 0 6.02207V7.80135C0 8.38241 0.472744 8.85516 1.05384 8.85516H2.30986V14.0691C2.30986 14.7986 2.8731 15.3988 3.58754 15.4585V16.7929C3.58754 17.309 4.00737 17.7288 4.52347 17.7288H5.92433C6.44042 17.7288 6.86029 17.309 6.86029 16.7929V15.4638H10.995V16.7929C10.995 17.309 11.4149 17.7288 11.931 17.7288H13.3319C13.848 17.7288 14.2678 17.309 14.2678 16.7929V15.4638H14.2954C15.0644 15.4638 15.6901 14.8382 15.6901 14.0691V8.85516H16.9462C17.5272 8.85516 18 8.38241 18 7.80135V6.02207C17.9999 5.44101 17.5272 4.96826 16.9461 4.96826ZM0.703122 7.80135V6.02207C0.703122 5.82871 0.860446 5.67138 1.05384 5.67138H1.86447C2.11003 5.67138 2.30986 5.87118 2.30986 6.11678V8.15203H1.05384C0.860446 8.15203 0.703122 7.99475 0.703122 7.80135ZM6.15714 16.7929C6.15714 16.9212 6.05269 17.0257 5.9243 17.0257H4.52343C4.39508 17.0257 4.29063 16.9212 4.29063 16.7929V15.4638H6.15714V16.7929ZM9.8429 12.7843H8.25272V11.6593C8.25272 11.5776 8.31927 11.5111 8.40105 11.5111H9.69465C9.77639 11.5111 9.84294 11.5776 9.84294 11.6593V12.7843H9.8429ZM8.25269 14.7607V13.4874H9.84287V14.7607H8.25269ZM13.5646 16.7929C13.5646 16.9212 13.4602 17.0257 13.3318 17.0257H11.9309C11.8026 17.0257 11.6981 16.9212 11.6981 16.7929V15.4638H13.5646V16.7929ZM14.987 14.0691C14.987 14.4504 14.6767 14.7607 14.2953 14.7607H10.546V11.6593C10.546 11.1899 10.1641 10.8079 9.69461 10.8079H8.40101C7.93154 10.8079 7.54956 11.1899 7.54956 11.6593V14.7607H3.70461C3.3232 14.7607 3.01295 14.4504 3.01295 14.0691V8.29828L4.47066 3.61443C4.55004 3.35899 4.7832 3.18736 5.05084 3.18736H12.9491C13.2167 3.18736 13.4499 3.35899 13.5293 3.61461L14.987 8.29828V14.0691ZM17.2968 7.80135C17.2968 7.99471 17.1395 8.15203 16.9461 8.15203H15.6902V6.1134C15.6921 5.86938 15.891 5.67138 16.1355 5.67138H16.9461C17.1395 5.67138 17.2968 5.82871 17.2968 6.02207V7.80135Z" fill="#60626E"/>
<path d="M5.99691 10.8076H4.73347C4.32225 10.8076 3.98767 11.1422 3.98767 11.5534V12.6095C3.98767 13.0208 4.32225 13.3553 4.73347 13.3553H5.99691C6.40813 13.3553 6.74272 13.0208 6.74272 12.6095V11.5534C6.74272 11.1422 6.40813 10.8076 5.99691 10.8076ZM6.03959 12.6095C6.03959 12.6331 6.02043 12.6522 5.99691 12.6522H4.73347C4.70995 12.6522 4.69079 12.6331 4.69079 12.6095V11.5534C4.69079 11.5299 4.70995 11.5107 4.73347 11.5107H5.99691C6.02043 11.5107 6.03959 11.5299 6.03959 11.5534V12.6095Z" fill="#60626E"/>
<path d="M13.3691 10.8076H12.1057C11.6944 10.8076 11.3599 11.1422 11.3599 11.5534V12.6095C11.3599 13.0208 11.6944 13.3553 12.1057 13.3553H13.3691C13.7804 13.3553 14.1149 13.0208 14.1149 12.6095V11.5534C14.1149 11.1422 13.7804 10.8076 13.3691 10.8076ZM13.4118 12.6095C13.4118 12.6331 13.3926 12.6522 13.3691 12.6522H12.1057C12.0821 12.6522 12.063 12.6331 12.063 12.6095V11.5534C12.063 11.5299 12.0821 11.5107 12.1057 11.5107H13.3691C13.3927 11.5107 13.4118 11.5299 13.4118 11.5534V12.6095H13.4118Z" fill="#60626E"/>
<path d="M8.82483 0.486152C8.89848 0.662952 9.10664 0.749787 9.284 0.676346C9.4614 0.60287 9.54683 0.394183 9.47381 0.217207C9.40076 0.0400909 9.19196 -0.0460416 9.01502 0.0270128C8.83822 0.0999969 8.75118 0.309422 8.82483 0.486152Z" fill="#60626E"/>
</svg>
