<svg width="46" height="20" viewBox="0 0 46 20" fill="none" xmlns="http://www.w3.org/2000/svg">
<path d="M41.9092 4.19201C41.4256 3.54754 40.697 3.66381 40.6335 3.65125C40.3629 2.4985 39.4048 1.57909 38.1961 1.39954L34.1876 0.804098C33.7871 0.744899 33.4264 1.0547 33.4264 1.4606V7.89742C33.4264 8.26403 33.7234 8.56109 34.09 8.56109C34.4567 8.56109 34.7537 8.26403 34.7537 7.89742V4.97877H38.7027V9.91905C38.7027 10.5748 39.2361 11.1082 39.8919 11.1082H43.9792V12.1964H43.6665C43.2999 12.1964 43.0028 12.4935 43.0028 12.8601C43.0028 13.2267 43.2999 13.5238 43.6665 13.5238H43.9792V15.9103H42.4714C42.098 14.5457 40.8478 13.5396 39.3664 13.5396C37.885 13.5396 36.6348 14.5457 36.2614 15.9103H34.7537V10.551C34.7537 10.1844 34.4567 9.88737 34.09 9.88737C33.7234 9.88737 33.4264 10.1844 33.4264 10.551V13.4697H32.3192V2.09905C32.3192 1.38096 31.735 0.796753 31.0169 0.796753H7.26623C6.89961 0.796753 6.60255 1.09381 6.60255 1.46042C6.60255 1.82704 6.89961 2.1241 7.26623 2.1241H30.9919V13.4695H2.74379V2.12418H4.61269C4.9793 2.12418 5.27636 1.82713 5.27636 1.46051C5.27636 1.0939 4.9793 0.796842 4.61269 0.796842H2.71875C2.00066 0.796842 1.41645 1.38105 1.41645 2.09914V13.4696H0.663671C0.297059 13.4696 0 13.7667 0 14.1333V15.8263C0 16.6045 0.633142 17.2376 1.41132 17.2376H2.02473V17.6452H0.663671C0.297059 17.6452 0 17.9423 0 18.3089C0 18.6755 0.297059 18.9726 0.663671 18.9726H2.6884C3.05501 18.9726 3.35207 18.6755 3.35207 18.3089V17.2376H4.07246C4.30439 18.7865 5.64359 19.9783 7.25614 19.9783C8.86868 19.9783 10.2079 18.7865 10.4398 17.2376H12.9876C13.3542 17.2376 13.6513 16.9405 13.6513 16.5739C13.6513 16.2073 13.3542 15.9102 12.9876 15.9102H10.3612C10.2492 15.501 10.0585 15.1242 9.80605 14.7969H21.9447C21.6923 15.1242 21.5015 15.501 21.3895 15.9102H15.641C15.2744 15.9102 14.9774 16.2073 14.9774 16.5739C14.9774 16.9405 15.2744 17.2376 15.641 17.2376H21.3109C21.5429 18.7865 22.8821 19.9783 24.4946 19.9783C26.1071 19.9783 27.4463 18.7865 27.6783 17.2376H36.1831C36.415 18.7865 37.7542 19.9783 39.3668 19.9783C40.9793 19.9783 42.3184 18.7865 42.5503 17.2376H44.0748C44.7543 17.2376 45.307 16.6849 45.307 16.0055V9.1706C45.3067 8.38331 44.9304 8.36048 41.9092 4.19201ZM7.25605 18.6508C6.21276 18.6508 5.36397 17.802 5.36397 16.7588C5.36397 16.7196 5.36556 16.6806 5.36795 16.6419C5.36795 16.6416 5.36795 16.6412 5.36804 16.641C5.42918 15.6525 6.2524 14.8668 7.25605 14.8668C8.2597 14.8668 9.083 15.6524 9.14406 16.641C9.14406 16.6413 9.14406 16.6417 9.14415 16.6419C9.14654 16.6806 9.14813 16.7196 9.14813 16.7588C9.14813 17.8021 8.29934 18.6508 7.25605 18.6508ZM4.15104 15.9102H1.41141C1.36513 15.9102 1.32743 15.8725 1.32743 15.8263V14.7969H4.70622C4.45376 15.1242 4.26298 15.501 4.15104 15.9102ZM33.4265 14.7969V15.9102H27.5995C27.4875 15.501 27.2968 15.1242 27.0443 14.7969H33.4265ZM24.4945 18.6508C23.4512 18.6508 22.6024 17.802 22.6024 16.7588C22.6024 16.7196 22.604 16.6806 22.6064 16.6419C22.6064 16.6416 22.6064 16.6412 22.6065 16.641C22.6676 15.6525 23.4909 14.8668 24.4945 14.8668C25.4982 14.8668 26.3215 15.6524 26.3825 16.641C26.3825 16.6413 26.3825 16.6417 26.3826 16.6419C26.385 16.6806 26.3866 16.7196 26.3866 16.7588C26.3865 17.8021 25.5378 18.6508 24.4945 18.6508ZM39.3666 18.6508C38.3233 18.6508 37.4745 17.802 37.4745 16.7588C37.4745 15.7156 38.3233 14.8668 39.3666 14.8668C40.4098 14.8668 41.2586 15.7156 41.2586 16.7588C41.2586 17.8021 40.4098 18.6508 39.3666 18.6508ZM38.0011 2.71246C38.557 2.79502 39.0164 3.16225 39.2388 3.65116H34.7538V2.22993L38.0011 2.71246ZM40.0302 9.78074V4.97859H40.0468C40.0474 4.97859 40.048 4.9785 40.0485 4.9785H40.8275C40.8353 4.9785 40.8428 4.98222 40.8475 4.98859L43.9744 9.15556C43.9776 9.15989 43.9795 9.16512 43.9795 9.17051V9.78074H40.0302Z" fill="#E76832"/>
<path d="M6.36924 12.0742C6.73585 12.0742 7.03291 11.7771 7.03291 11.4105V4.18296C7.03291 3.81635 6.73585 3.51929 6.36924 3.51929C6.00263 3.51929 5.70557 3.81635 5.70557 4.18296V11.4105C5.70557 11.7771 6.00263 12.0742 6.36924 12.0742Z" fill="#E76832"/>
<path d="M12.2819 11.4105V4.18296C12.2819 3.81635 11.9849 3.51929 11.6183 3.51929C11.2516 3.51929 10.9546 3.81635 10.9546 4.18296V11.4105C10.9546 11.7771 11.2516 12.0742 11.6183 12.0742C11.9849 12.0742 12.2819 11.7771 12.2819 11.4105Z" fill="#E76832"/>
<path d="M22.7805 11.4105V4.18296C22.7805 3.81635 22.4834 3.51929 22.1168 3.51929C21.7502 3.51929 21.4531 3.81635 21.4531 4.18296V11.4105C21.4531 11.7771 21.7502 12.0742 22.1168 12.0742C22.4834 12.0742 22.7805 11.7771 22.7805 11.4105Z" fill="#E76832"/>
<path d="M28.0305 11.4105V4.18296C28.0305 3.81635 27.7334 3.51929 27.3668 3.51929C27.0002 3.51929 26.7031 3.81635 26.7031 4.18296V11.4105C26.7031 11.7771 27.0002 12.0742 27.3668 12.0742C27.7334 12.0742 28.0305 11.7771 28.0305 11.4105Z" fill="#E76832"/>
<path d="M13.838 10.6253L14.2564 11.0551C15.0906 11.9121 16.4612 11.9316 17.3192 11.0965L19.5659 8.90964C20.22 8.27304 20.2975 7.16391 19.5534 6.43989L17.3191 4.26508C16.4634 3.43213 15.0894 3.4508 14.2564 4.30649L13.838 4.73638C13.5823 4.9991 13.5881 5.41925 13.8507 5.67481L15.9115 7.68078L13.8507 9.68675C13.588 9.9424 13.5823 10.3625 13.838 10.6253ZM17.3259 8.15641C17.4542 8.03155 17.5267 7.85997 17.5267 7.68087C17.5267 7.50177 17.4543 7.33018 17.3259 7.20533L15.2538 5.18838C15.5789 4.90106 16.0774 4.90884 16.3933 5.21626L18.6277 7.39107C18.8091 7.56787 18.7883 7.81422 18.6401 7.95846L16.3934 10.1453C16.0774 10.453 15.5789 10.4608 15.2538 10.1733L17.3259 8.15641Z" fill="#E76832"/>
</svg>
