<svg width="44" height="42" viewBox="0 0 44 42" fill="none" xmlns="http://www.w3.org/2000/svg">
<rect width="44" height="42" fill="#DCDCDC"/>
<g clip-path="url(#clip0)">
<rect width="1440" height="1234" transform="translate(-326 -87)" fill="#363740"/>
<path d="M-71 -87H1114V1147H-71V-87Z" fill="#F7F8FC"/>
<g filter="url(#filter0_d)">
<rect x="-19" y="22" width="224" height="72" rx="4" fill="white"/>
</g>
<rect width="44" height="42" rx="4" fill="#EC407A"/>
<path d="M30.8281 31.16L19.2139 32.0246L14.4698 27.2805L12.4102 29.34L13.0318 29.9616L10.8563 32.1395L11.4781 32.7607L13.6533 30.5832L17.6076 34.5374L17.0241 35.1208L9.12026 35.121L10.857 33.3825L10.2352 32.7613L7 35.9999L17.3882 35.9997L18.229 35.1588L18.6857 35.6155L20.7452 33.556L20.0341 32.8449L31.2188 32.0122L33.3025 29.9284L32.6811 29.3069L30.8281 31.16ZM18.6857 34.3725L13.6531 29.34L14.4697 28.5234L19.5022 33.5559L18.6857 34.3725Z" fill="white"/>
<path d="M36.0771 24.6788C35.5303 24.132 34.5914 23.9662 33.7337 24.5922C33.4173 24.3653 33.0362 24.2334 32.6411 24.2215C32.0998 24.2054 31.5706 24.4146 31.1894 24.7958L27.9292 28.0559C28.2126 27.6734 28.3571 27.2186 28.3396 26.7491L28.2921 25.4789L19.0649 24.5495L16.0962 27.5183L16.7176 28.1397L19.3915 25.4657L27.4423 26.2766L27.4611 26.7819C27.4733 27.1049 27.3483 27.4193 27.1093 27.6674C26.8573 27.929 26.51 28.0804 26.1547 28.0837H21.3158V28.9626H26.1425V28.9627C26.1478 28.9627 26.153 28.9627 26.1584 28.9626H30.5609L34.0386 25.4849C34.5917 24.9318 35.1489 24.9935 35.4555 25.3002C35.7622 25.6068 35.824 26.1639 35.2709 26.717L33.3024 28.6855L33.9238 29.3069L35.8923 27.3385C36.8261 26.4048 36.6921 25.2937 36.0771 24.6788ZM30.197 28.0838H29.1443L31.8108 25.4173C32.0245 25.2035 32.3114 25.0912 32.6146 25.1C32.7757 25.1049 32.9291 25.1443 33.0679 25.2129L30.197 28.0838Z" fill="white"/>
<path d="M27.6304 19.3726H28.5093V20.2515H27.6304V19.3726Z" fill="white"/>
<path d="M26.7519 20.2516V19.3727C25.2349 19.3727 23.7008 18.2529 23.0212 16.6494L22.2119 16.9924C23.0383 18.9418 24.8628 20.2516 26.7519 20.2516Z" fill="white"/>
<path d="M25.873 9.61938H26.752V10.4983H25.873V9.61938Z" fill="white"/>
<path d="M17.9824 28.1128L18.6038 27.4914L19.2252 28.1128L18.6038 28.7342L17.9824 28.1128Z" fill="white"/>
<path d="M19.2251 26.8711L19.8464 26.2498L20.4678 26.8711L19.8465 27.4925L19.2251 26.8711Z" fill="white"/>
<path d="M31.3611 13.2216L32.1703 12.8786C31.344 10.9291 29.5196 9.61938 27.6304 9.61938V10.4983C29.1473 10.4983 30.6815 11.6182 31.3611 13.2216Z" fill="white"/>
<path d="M13.0283 32.5955L13.6497 31.9741L14.2711 32.5955L13.6497 33.2168L13.0283 32.5955Z" fill="white"/>
<path d="M29.3882 12.1714H24.9937V13.0503H26.7515C27.3244 13.0503 27.8131 13.4177 27.9945 13.9292H24.9937V14.8081H27.9945C27.8131 15.3196 27.3244 15.687 26.7515 15.687H24.9937V16.5659H25.3033L28.302 18.5077L28.7796 17.77L26.9114 16.5602C27.9008 16.4887 28.7107 15.7591 28.9046 14.8082H29.3882V13.9293H28.9046C28.8384 13.6047 28.7006 13.3059 28.5082 13.0504H29.3882V12.1714Z" fill="white"/>
<path d="M27.1908 23.8707C29.4051 23.8707 31.5299 23.0541 33.1735 21.5711L32.5847 20.9185C31.1029 22.2555 29.1873 22.9918 27.1908 22.9918C22.7485 22.9918 19.1343 19.3776 19.1343 14.9352C19.1343 12.9389 19.8706 11.0233 21.2076 9.54138L20.5551 8.95264C19.0721 10.5964 18.2554 12.721 18.2554 14.9352C18.2554 19.8623 22.2639 23.8707 27.1908 23.8707Z" fill="white"/>
<path d="M27.1912 6.87884C31.6335 6.87884 35.2477 10.4931 35.2477 14.9354C35.2477 16.9317 34.5115 18.8473 33.1744 20.3294L33.827 20.9181C35.31 19.2743 36.1266 17.1497 36.1266 14.9355C36.1266 10.0084 32.1182 6 27.1912 6C24.977 6 22.8523 6.81667 21.2085 8.29973L21.7972 8.95228C23.2793 7.61518 25.1948 6.87884 27.1912 6.87884Z" fill="white"/>
<path d="M34.3692 14.9355C34.3692 13.1925 33.7359 11.5114 32.5863 10.2021L31.9259 10.782C32.9347 11.9308 33.4903 13.4059 33.4903 14.9355C33.4903 18.4087 30.6646 21.2343 27.1915 21.2343C25.6618 21.2343 24.1867 20.6788 23.038 19.6699L22.458 20.3304C23.7673 21.48 25.4483 22.1132 27.1915 22.1132C31.1493 22.1132 34.3692 18.8934 34.3692 14.9355Z" fill="white"/>
<path d="M20.0132 14.9355C20.0132 16.6788 20.6464 18.3598 21.7961 19.669L22.4565 19.0891C21.4477 17.9404 20.8921 16.4652 20.8921 14.9355C20.8921 11.4624 23.7178 8.63671 27.1909 8.63671C28.7207 8.63671 30.1958 9.19223 31.3444 10.201L31.9244 9.54069C30.6152 8.39103 28.9342 7.75781 27.1909 7.75781C23.2331 7.75781 20.0132 10.9777 20.0132 14.9355Z" fill="white"/>
</g>
<defs>
<filter id="filter0_d" x="-23" y="18" width="232" height="80" filterUnits="userSpaceOnUse" color-interpolation-filters="sRGB">
<feFlood flood-opacity="0" result="BackgroundImageFix"/>
<feColorMatrix in="SourceAlpha" type="matrix" values="0 0 0 0 0 0 0 0 0 0 0 0 0 0 0 0 0 0 127 0"/>
<feOffset/>
<feGaussianBlur stdDeviation="2"/>
<feColorMatrix type="matrix" values="0 0 0 0 0 0 0 0 0 0 0 0 0 0 0 0 0 0 0.25 0"/>
<feBlend mode="normal" in2="BackgroundImageFix" result="effect1_dropShadow"/>
<feBlend mode="normal" in="SourceGraphic" in2="effect1_dropShadow" result="shape"/>
</filter>
<clipPath id="clip0">
<rect width="1440" height="1234" fill="white" transform="translate(-326 -87)"/>
</clipPath>
</defs>
</svg>
