<svg width="30" height="16" viewBox="0 0 30 16" fill="none" xmlns="http://www.w3.org/2000/svg">
<path d="M28.7744 7.62053L28.2 7.04608L27.0427 3.57417C27.2153 3.51931 27.3405 3.35781 27.3405 3.16702C27.3405 2.93107 27.1492 2.73977 26.9133 2.73977H22.774V0.8839C22.774 0.39649 22.3775 0 21.8901 0H0.8839C0.39649 0 0 0.396547 0 0.8839V10.9303C0 11.4177 0.39649 11.8142 0.8839 11.8142H1.36994V12.7566C1.36994 13.244 1.76643 13.6405 2.25384 13.6405H3.23772C3.43801 14.6796 4.35376 15.4671 5.45043 15.4671C6.20137 15.4671 6.86726 15.0976 7.27702 14.5313C7.68684 15.0976 8.35273 15.4671 9.10367 15.4671C10.2003 15.4671 11.1161 14.6796 11.3164 13.6405H21.9605C22.1608 14.6796 23.0766 15.4671 24.1733 15.4671C25.416 15.4671 26.4271 14.456 26.4271 13.2133C26.4271 13.2035 26.4265 13.1938 26.4264 13.1841H28.2831C28.7705 13.1841 29.167 12.7876 29.167 12.3002V8.5684C29.1671 8.21037 29.0276 7.87375 28.7744 7.62053ZM3.23772 12.7861H2.25384C2.23761 12.7861 2.22445 12.7729 2.22445 12.7567V11.8142H3.68536C3.46433 12.0926 3.3075 12.4239 3.23772 12.7861ZM5.45043 14.6127C4.67881 14.6127 4.05109 13.9849 4.05109 13.2134C4.05109 12.4447 4.67414 11.819 5.44171 11.8142H5.45926C6.22683 11.8189 6.84988 12.4447 6.84988 13.2134C6.84982 13.9849 6.22205 14.6127 5.45043 14.6127ZM9.10372 14.6127C8.3321 14.6127 7.70433 13.9849 7.70433 13.2134C7.70433 12.4447 8.32738 11.819 9.09495 11.8142H9.11249C9.88007 11.8189 10.5031 12.4447 10.5031 13.2134C10.5031 13.9849 9.87534 14.6127 9.10372 14.6127ZM21.9606 12.7861H11.3164C11.2466 12.4239 11.0898 12.0925 10.8687 11.8142H19.1501C19.386 11.8142 19.5773 11.6229 19.5773 11.3869C19.5773 11.1509 19.386 10.9597 19.1501 10.9597H0.8839C0.867664 10.9597 0.854505 10.9465 0.854505 10.9303V0.8839C0.854505 0.867664 0.867664 0.854504 0.8839 0.854504H21.89C21.9063 0.854504 21.9194 0.867664 21.9194 0.8839V10.9597H20.9769C20.7409 10.9597 20.5496 11.151 20.5496 11.387C20.5496 11.6229 20.7409 11.8142 20.9769 11.8142H22.4082C22.1872 12.0926 22.0304 12.4239 21.9606 12.7861ZM27.386 7.30624H24.63C24.6137 7.30624 24.6006 7.29308 24.6006 7.27685V5.42081H26.7575L27.386 7.30624ZM24.1733 14.6127C23.4017 14.6127 22.774 13.9849 22.774 13.2134C22.774 12.4447 23.397 11.819 24.1646 11.8142H24.1734C24.1743 11.8142 24.1753 11.8141 24.1763 11.814C24.9466 11.8156 25.5728 12.4427 25.5728 13.2133C25.5726 13.9849 24.9449 14.6127 24.1733 14.6127ZM28.3126 12.3003C28.3126 12.3165 28.2994 12.3297 28.2832 12.3297H26.2465C25.9021 11.5249 25.1026 10.9595 24.1733 10.9595C24.1703 10.9595 24.1675 10.9598 24.1645 10.9598H22.774V3.62384V3.62361C22.774 3.60738 22.7871 3.59422 22.8034 3.59422H26.1486L26.4727 4.5663H24.1733C23.9374 4.5663 23.7461 4.7576 23.7461 4.99355V7.27685C23.7461 7.76426 24.1425 8.16075 24.63 8.16075H28.1062L28.1702 8.22478C28.262 8.31661 28.3126 8.43863 28.3126 8.56846V9.58977H27.8265C27.5906 9.58977 27.3993 9.78106 27.3993 10.017C27.3993 10.253 27.5906 10.4443 27.8265 10.4443H28.3126V12.3003Z" fill="#878CFF"/>
</svg>
