<svg width="26" height="18" viewBox="0 0 26 18" fill="none" xmlns="http://www.w3.org/2000/svg">
<path d="M5.8977 13.4818C5.19968 13.4818 4.63379 14.0477 4.63379 14.7457C4.63379 15.4437 5.19963 16.0096 5.8977 16.0096C6.59576 16.0096 7.1616 15.4438 7.1616 14.7457C7.16081 14.048 6.59541 13.4826 5.8977 13.4818ZM5.8977 15.167C5.66501 15.167 5.47641 14.9784 5.47641 14.7457C5.47641 14.513 5.66501 14.3244 5.8977 14.3244C6.13038 14.3244 6.31898 14.513 6.31898 14.7457C6.31873 14.9783 6.13028 15.1668 5.8977 15.167Z" fill="#FCA744"/>
<path d="M19.3801 13.4818C18.6821 13.4818 18.1162 14.0477 18.1162 14.7457C18.1162 15.4437 18.6821 16.0096 19.3801 16.0096C20.0781 16.0096 20.644 15.4438 20.644 14.7457C20.6433 14.048 20.0778 13.4826 19.3801 13.4818ZM19.3801 15.167C19.1474 15.167 18.9588 14.9784 18.9588 14.7457C18.9588 14.513 19.1475 14.3244 19.3801 14.3244C19.6128 14.3244 19.8014 14.513 19.8014 14.7457C19.8012 14.9783 19.6127 15.1668 19.3801 15.167Z" fill="#FCA744"/>
<path d="M24.957 7.48469L22.0548 4.21631C21.8144 3.94556 21.4694 3.79097 21.1073 3.79171H17.2734V1.2639C17.2726 0.56619 16.7072 0.000740569 16.0095 0H1.2639C0.56619 0.000740569 0.00074061 0.56619 4.11444e-08 1.2639V12.2178C-4.93301e-05 12.3295 0.0443355 12.4367 0.123379 12.5157C0.202373 12.5947 0.309558 12.6391 0.421335 12.6391H0.84262V13.903C0.84336 14.6007 1.40881 15.1662 2.10652 15.1669H2.98277C3.19042 16.6174 4.4329 17.6947 5.89824 17.6947C7.36358 17.6947 8.60606 16.6174 8.81371 15.1669H16.4645C16.6721 16.6174 17.9146 17.6947 19.38 17.6947C20.8453 17.6947 22.0878 16.6174 22.2954 15.1669H24.0142C24.7119 15.1662 25.2774 14.6007 25.2781 13.903V8.32484C25.2778 8.01484 25.1635 7.71584 24.957 7.48469ZM0.84262 11.7964V1.2639C0.842867 1.03132 1.03132 0.842817 1.2639 0.842619H16.0095C16.2421 0.842866 16.4306 1.03132 16.4308 1.2639V11.7964H0.84262ZM2.98277 14.3242H2.10652C1.87394 14.324 1.68544 14.1355 1.68524 13.903V12.639H3.83832C3.37551 13.0914 3.07479 13.6837 2.98277 14.3242ZM5.89824 16.8521C4.73485 16.8521 3.79171 15.9089 3.79171 14.7455C3.79171 13.5821 4.73485 12.639 5.89824 12.639C7.06162 12.639 8.00476 13.5822 8.00476 14.7456C8.00338 15.9084 7.06103 16.8507 5.89824 16.8521ZM10.1112 14.3242H8.81366C8.72164 13.6837 8.42096 13.0913 7.95816 12.639H10.1112V14.3242ZM13.903 14.3242H10.9539V12.639H13.903V14.3242ZM16.4644 14.3242H14.7456V12.639H17.3199C16.8571 13.0914 16.5565 13.6837 16.4644 14.3242ZM19.3799 16.8521C18.2165 16.8521 17.2733 15.9089 17.2733 14.7455C17.2733 13.5821 18.2164 12.639 19.3799 12.639C20.5432 12.639 21.4864 13.5821 21.4864 14.7455C21.485 15.9084 20.5427 16.8507 19.3799 16.8521ZM24.4355 13.903C24.4352 14.1355 24.2468 14.324 24.0142 14.3242H22.2953C22.0853 12.875 20.8443 11.799 19.3799 11.7964H17.2733V4.63434H18.9586V8.84733C18.9593 9.54505 19.5248 10.1105 20.2225 10.1112H24.4355V13.903ZM24.4355 9.26862H20.2225C19.9899 9.26837 19.8014 9.07992 19.8012 8.84733V4.63434H21.1073C21.2282 4.63364 21.3437 4.68489 21.4243 4.77504L24.3275 8.04466C24.3966 8.12168 24.435 8.22136 24.4355 8.32484V9.26862H24.4355Z" fill="#FCA744"/>
</svg>
