<svg width="36" height="16" viewBox="0 0 36 16" fill="none" xmlns="http://www.w3.org/2000/svg">
<path d="M33.2751 2.69577C32.8912 2.18407 32.3127 2.27639 32.2622 2.26642C32.0474 1.35115 31.2867 0.62116 30.327 0.478604L27.1444 0.00583205C26.8264 -0.0411712 26.5399 0.204805 26.5399 0.527083V5.63779C26.5399 5.92888 26.7758 6.16474 27.0669 6.16474C27.3579 6.16474 27.5938 5.92888 27.5938 5.63779V3.32044H30.7293V7.24293C30.7293 7.76355 31.1528 8.18707 31.6734 8.18707H34.9187V9.05112H34.6704C34.3793 9.05112 34.1434 9.28698 34.1434 9.57806C34.1434 9.86914 34.3793 10.105 34.6704 10.105H34.9187V11.9999H33.7215C33.425 10.9164 32.4324 10.1176 31.2562 10.1176C30.08 10.1176 29.0874 10.9164 28.7909 11.9999H27.5938V7.74472C27.5938 7.45364 27.3579 7.21778 27.0669 7.21778C26.7758 7.21778 26.5399 7.45364 26.5399 7.74472V10.0621H25.6608V1.034C25.6608 0.463851 25.197 0 24.6268 0H5.76925C5.47816 0 5.24231 0.235859 5.24231 0.526943C5.24231 0.818026 5.47816 1.05389 5.76925 1.05389H24.607V10.0619H2.17852V1.05396H3.66239C3.95347 1.05396 4.18933 0.818096 4.18933 0.527013C4.18933 0.23593 3.95347 7.07565e-05 3.66239 7.07565e-05H2.15864C1.58849 7.07565e-05 1.12464 0.46392 1.12464 1.03407V10.062H0.526943C0.235859 10.062 0 10.2979 0 10.5889V11.9332C0 12.5511 0.502703 13.0537 1.12056 13.0537H1.6076V13.3774H0.526943C0.235859 13.3774 0 13.6132 0 13.9043C0 14.1954 0.235859 14.4313 0.526943 14.4313H2.13454C2.42562 14.4313 2.66148 14.1954 2.66148 13.9043V13.0537H3.23346C3.41761 14.2835 4.48091 15.2298 5.76124 15.2298C7.04157 15.2298 8.10487 14.2835 8.28902 13.0537H10.3119C10.603 13.0537 10.8389 12.8178 10.8389 12.5268C10.8389 12.2357 10.603 11.9998 10.3119 11.9998H8.22663C8.13768 11.6749 7.98627 11.3757 7.78582 11.1159H17.4237C17.2233 11.3757 17.0718 11.6749 16.9829 11.9998H12.4187C12.1276 11.9998 11.8918 12.2357 11.8918 12.5268C11.8918 12.8178 12.1276 13.0537 12.4187 13.0537H16.9205C17.1046 14.2835 18.1679 15.2298 19.4483 15.2298C20.7286 15.2298 21.7919 14.2835 21.976 13.0537H28.7287C28.9128 14.2835 29.9761 15.2298 31.2565 15.2298C32.5368 15.2298 33.6 14.2835 33.7842 13.0537H34.9946C35.5341 13.0537 35.9729 12.6149 35.9729 12.0755V6.64868C35.9727 6.02359 35.6739 6.00546 33.2751 2.69577ZM5.76117 14.1758C4.93281 14.1758 4.25889 13.5019 4.25889 12.6736C4.25889 12.6424 4.26015 12.6115 4.26205 12.5808C4.26205 12.5805 4.26205 12.5802 4.26212 12.58C4.31067 11.7952 4.96429 11.1713 5.76117 11.1713C6.55805 11.1713 7.21174 11.7951 7.26021 12.58C7.26021 12.5803 7.26021 12.5806 7.26028 12.5808C7.26218 12.6115 7.26345 12.6424 7.26345 12.6736C7.26345 13.502 6.58952 14.1758 5.76117 14.1758ZM3.29585 11.9998H1.12063C1.08389 11.9998 1.05396 11.9699 1.05396 11.9332V11.1159H3.73665C3.53621 11.3757 3.38473 11.6749 3.29585 11.9998ZM26.54 11.1159V11.9998H21.9135C21.8246 11.6749 21.6731 11.3757 21.4727 11.1159H26.54ZM19.4482 14.1758C18.6198 14.1758 17.9459 13.5019 17.9459 12.6736C17.9459 12.6424 17.9472 12.6115 17.9491 12.5808C17.9491 12.5805 17.9491 12.5802 17.9491 12.58C17.9977 11.7952 18.6513 11.1713 19.4482 11.1713C20.2451 11.1713 20.8988 11.7951 20.9472 12.58C20.9472 12.5803 20.9472 12.5806 20.9473 12.5808C20.9492 12.6115 20.9505 12.6424 20.9505 12.6736C20.9504 13.502 20.2765 14.1758 19.4482 14.1758ZM31.2563 14.1758C30.428 14.1758 29.7541 13.5019 29.7541 12.6736C29.7541 11.8452 30.428 11.1713 31.2563 11.1713C32.0846 11.1713 32.7585 11.8452 32.7585 12.6736C32.7585 13.502 32.0846 14.1758 31.2563 14.1758ZM30.1722 1.52104C30.6135 1.58659 30.9783 1.87816 31.1549 2.26635H27.5939V1.13791L30.1722 1.52104ZM31.7832 7.13312V3.3203H31.7964C31.7969 3.3203 31.7973 3.32023 31.7978 3.32023H32.4163C32.4225 3.32023 32.4284 3.32318 32.4322 3.32824L34.9149 6.63674C34.9174 6.64018 34.9189 6.64432 34.9189 6.64861V7.13312H31.7832Z" fill="#00A3FF"/>
</svg>
