<svg width="17" height="17" viewBox="0 0 17 17" fill="none" xmlns="http://www.w3.org/2000/svg">
<path d="M13.4585 9.20816C13.377 9.20816 13.2963 9.18053 13.2304 9.12458C13.0951 9.01125 9.91687 6.2998 9.91687 3.5416C9.91687 1.58876 11.5056 0 13.4585 0C15.4113 0 17.0001 1.58876 17.0001 3.5416C17.0001 6.2998 13.8218 9.01125 13.6865 9.12458C13.6207 9.18053 13.5399 9.20816 13.4585 9.20816ZM13.4585 0.70832C11.8959 0.70832 10.6252 1.97905 10.6252 3.5416C10.6252 5.57306 12.748 7.71785 13.4585 8.37801C14.1689 7.71715 16.2917 5.57306 16.2917 3.5416C16.2917 1.97905 15.021 0.70832 13.4585 0.70832Z" fill="#60626E"/>
<path d="M13.4585 4.95827C12.6772 4.95827 12.0419 4.32291 12.0419 3.54164C12.0419 2.76036 12.6772 2.125 13.4585 2.125C14.2398 2.125 14.8751 2.76036 14.8751 3.54164C14.8751 4.32291 14.2398 4.95827 13.4585 4.95827ZM13.4585 2.83332C13.0682 2.83332 12.7502 3.15064 12.7502 3.54164C12.7502 3.93263 13.0682 4.24995 13.4585 4.24995C13.8488 4.24995 14.1668 3.93263 14.1668 3.54164C14.1668 3.15064 13.8488 2.83332 13.4585 2.83332Z" fill="#60626E"/>
<path d="M2.12496 16.2913C2.04138 16.2913 1.95709 16.2616 1.8898 16.2021C1.8133 16.1341 0 14.5099 0 12.8382C0 11.6178 0.953398 10.6248 2.12496 10.6248C3.29652 10.6248 4.24992 11.6178 4.24992 12.8382C4.24992 14.5099 2.43662 16.1341 2.36012 16.2021C2.29283 16.2616 2.20854 16.2913 2.12496 16.2913ZM2.12496 11.3331C1.34368 11.3331 0.70832 12.0081 0.70832 12.8382C0.70832 13.8745 1.6688 14.9781 2.12496 15.4442C2.58112 14.9788 3.5416 13.8745 3.5416 12.8382C3.5416 12.0081 2.90624 11.3331 2.12496 11.3331Z" fill="#60626E"/>
<path d="M11.2719 16.9998H2.12467C1.92917 16.9998 1.77051 16.8411 1.77051 16.6456C1.77051 16.4501 1.92917 16.2914 2.12467 16.2914H11.2719C11.4972 16.2914 11.5814 16.1186 11.602 16.0655C11.6225 16.0124 11.6764 15.8268 11.5099 15.6752L6.42984 11.057C6.10259 10.7588 5.99422 10.2998 6.15359 9.88753C6.31296 9.47458 6.70183 9.20825 7.14382 9.20825H13.4578C13.6533 9.20825 13.8119 9.36692 13.8119 9.56241C13.8119 9.75791 13.6533 9.91657 13.4578 9.91657H7.14382C6.91858 9.91657 6.83429 10.0894 6.81375 10.1425C6.7932 10.1956 6.73937 10.3812 6.90583 10.5328L11.9859 15.151C12.3131 15.4492 12.4215 15.9082 12.2621 16.3205C12.1028 16.7334 11.7139 16.9998 11.2719 16.9998Z" fill="#60626E"/>
<path d="M2.12531 13.4579C1.73503 13.4579 1.41699 13.1406 1.41699 12.7496C1.41699 12.3586 1.73503 12.0413 2.12531 12.0413C2.51559 12.0413 2.83363 12.3586 2.83363 12.7496C2.83363 13.1406 2.51559 13.4579 2.12531 13.4579ZM2.12531 12.7489C2.12531 12.7489 2.12531 12.7496 2.12531 12.7489L2.47947 12.7496L2.12531 12.7489Z" fill="#60626E"/>
</svg>
