<svg width="6" height="10" viewBox="0 0 6 10" fill="none" xmlns="http://www.w3.org/2000/svg">
<path d="M5.93979 2.26561C5.89975 2.22299 5.8485 2.20172 5.7862 2.20172H4.64371C4.56793 1.80886 4.42539 1.46783 4.21606 1.17902H5.77277C5.83523 1.17902 5.88634 1.15773 5.92652 1.11522C5.96639 1.07263 5.98643 1.01812 5.98643 0.951855V0.227267C5.98643 0.160948 5.96642 0.106544 5.92652 0.0639064C5.88629 0.0213685 5.83518 0 5.77272 0H0.213778C0.151388 0 0.100208 0.0213685 0.0600967 0.0638816C0.0201024 0.106519 0 0.160923 0 0.227242V1.17183C0 1.23338 0.0211555 1.28664 0.0634665 1.33161C0.105778 1.37659 0.155882 1.39908 0.213778 1.39908H1.1826C2.12241 1.39908 2.7193 1.66652 2.97317 2.2016H0.213778C0.151388 2.2016 0.100138 2.22287 0.0600967 2.26548C0.0201024 2.30814 0 2.36252 0 2.42884V3.15333C0 3.2196 0.0200088 3.27408 0.0600967 3.31659C0.100208 3.35925 0.151482 3.38047 0.213778 3.38047H3.06685C2.96884 3.76884 2.74053 4.06471 2.38191 4.26832C2.02328 4.47196 1.55011 4.57378 0.962108 4.57378H0.213778C0.155882 4.57378 0.105778 4.59629 0.0634665 4.64124C0.0211321 4.68624 0 4.73952 0 4.80102V5.7031C0 5.76474 0.0200088 5.8168 0.0600967 5.85937C0.91528 6.82525 2.02445 8.17694 3.38746 9.91477C3.42759 9.97164 3.48324 10 3.55453 10H4.85737C4.951 10 5.01564 9.95751 5.05116 9.87211C5.0957 9.78689 5.08697 9.70639 5.02441 9.63062C3.72391 7.93549 2.70156 6.66657 1.95768 5.82379C2.71493 5.72912 3.32963 5.46864 3.80182 5.04259C4.27393 4.61649 4.56119 4.0624 4.66372 3.3806H5.7862C5.8485 3.3806 5.89977 3.35935 5.93979 3.31672C5.97992 3.2742 6 3.21972 6 3.15346V2.42904C6 2.36265 5.97992 2.30824 5.93979 2.26561Z" fill="#404040"/>
</svg>
