<svg width="46" height="20" viewBox="0 0 46 20" fill="none" xmlns="http://www.w3.org/2000/svg">
<path d="M41.9092 3.39525C41.4256 2.75078 40.697 2.86706 40.6335 2.8545C40.3629 1.70174 39.4048 0.782335 38.1961 0.60279L34.1876 0.00734532C33.7871 -0.0518542 33.4264 0.257947 33.4264 0.663848V7.10066C33.4264 7.46727 33.7234 7.76433 34.09 7.76433C34.4567 7.76433 34.7537 7.46727 34.7537 7.10066V4.18201H38.7027V9.12229C38.7027 9.778 39.2361 10.3114 39.8919 10.3114H43.9792V11.3997H43.6665C43.2999 11.3997 43.0028 11.6967 43.0028 12.0633C43.0028 12.4299 43.2999 12.727 43.6665 12.727H43.9792V15.1136H42.4714C42.098 13.749 40.8478 12.7428 39.3664 12.7428C37.885 12.7428 36.6348 13.749 36.2614 15.1136H34.7537V9.75429C34.7537 9.38767 34.4567 9.09061 34.09 9.09061C33.7234 9.09061 33.4264 9.38767 33.4264 9.75429V12.6729H32.3192V1.3023C32.3192 0.584209 31.735 0 31.0169 0H7.26623C6.89961 0 6.60255 0.297059 6.60255 0.663671C6.60255 1.03028 6.89961 1.32734 7.26623 1.32734H30.9919V12.6728H2.74379V1.32743H4.61269C4.9793 1.32743 5.27636 1.03037 5.27636 0.66376C5.27636 0.297148 4.9793 8.9116e-05 4.61269 8.9116e-05H2.71875C2.00066 8.9116e-05 1.41645 0.584296 1.41645 1.30239V12.6728H0.663671C0.297059 12.6728 0 12.9699 0 13.3365V15.0296C0 15.8078 0.633142 16.4408 1.41132 16.4408H2.02473V16.8485H0.663671C0.297059 16.8485 0 17.1455 0 17.5122C0 17.8788 0.297059 18.1758 0.663671 18.1758H2.6884C3.05501 18.1758 3.35207 17.8788 3.35207 17.5122V16.4408H4.07246C4.30439 17.9897 5.64359 19.1815 7.25614 19.1815C8.86868 19.1815 10.2079 17.9897 10.4398 16.4408H12.9876C13.3542 16.4408 13.6513 16.1438 13.6513 15.7771C13.6513 15.4105 13.3542 15.1135 12.9876 15.1135H10.3612C10.2492 14.7042 10.0585 14.3274 9.80605 14.0002H21.9447C21.6923 14.3274 21.5015 14.7042 21.3895 15.1135H15.641C15.2744 15.1135 14.9774 15.4105 14.9774 15.7771C14.9774 16.1438 15.2744 16.4408 15.641 16.4408H21.3109C21.5429 17.9897 22.8821 19.1815 24.4946 19.1815C26.1071 19.1815 27.4463 17.9897 27.6783 16.4408H36.1831C36.415 17.9897 37.7542 19.1815 39.3668 19.1815C40.9793 19.1815 42.3184 17.9897 42.5503 16.4408H44.0748C44.7543 16.4408 45.307 15.8881 45.307 15.2088V8.37385C45.3067 7.58656 44.9304 7.56373 41.9092 3.39525ZM7.25605 17.8541C6.21276 17.8541 5.36397 17.0053 5.36397 15.9621C5.36397 15.9228 5.36556 15.8839 5.36795 15.8452C5.36795 15.8448 5.36795 15.8445 5.36804 15.8442C5.42918 14.8557 6.2524 14.07 7.25605 14.07C8.2597 14.07 9.083 14.8556 9.14406 15.8442C9.14406 15.8446 9.14406 15.8449 9.14415 15.8452C9.14654 15.8839 9.14813 15.9228 9.14813 15.9621C9.14813 17.0054 8.29934 17.8541 7.25605 17.8541ZM4.15104 15.1135H1.41141C1.36513 15.1135 1.32743 15.0758 1.32743 15.0296V14.0002H4.70622C4.45376 14.3274 4.26298 14.7042 4.15104 15.1135ZM33.4265 14.0002V15.1135H27.5995C27.4875 14.7042 27.2968 14.3274 27.0443 14.0002H33.4265ZM24.4945 17.8541C23.4512 17.8541 22.6024 17.0053 22.6024 15.9621C22.6024 15.9228 22.604 15.8839 22.6064 15.8452C22.6064 15.8448 22.6064 15.8445 22.6065 15.8442C22.6676 14.8557 23.4909 14.07 24.4945 14.07C25.4982 14.07 26.3215 14.8556 26.3825 15.8442C26.3825 15.8446 26.3825 15.8449 26.3826 15.8452C26.385 15.8839 26.3866 15.9228 26.3866 15.9621C26.3865 17.0054 25.5378 17.8541 24.4945 17.8541ZM39.3666 17.8541C38.3233 17.8541 37.4745 17.0053 37.4745 15.9621C37.4745 14.9188 38.3233 14.07 39.3666 14.07C40.4098 14.07 41.2586 14.9188 41.2586 15.9621C41.2586 17.0054 40.4098 17.8541 39.3666 17.8541ZM38.0011 1.91571C38.557 1.99827 39.0164 2.3655 39.2388 2.85441H34.7538V1.43318L38.0011 1.91571ZM40.0302 8.98398V4.18184H40.0468C40.0474 4.18184 40.048 4.18175 40.0485 4.18175H40.8275C40.8353 4.18175 40.8428 4.18546 40.8475 4.19184L43.9744 8.35881C43.9776 8.36314 43.9795 8.36836 43.9795 8.37376V8.98398H40.0302Z" fill="#3DBB7C"/>
<path d="M6.36924 11.2774C6.73585 11.2774 7.03291 10.9804 7.03291 10.6138V3.38621C7.03291 3.01959 6.73585 2.72253 6.36924 2.72253C6.00263 2.72253 5.70557 3.01959 5.70557 3.38621V10.6138C5.70557 10.9804 6.00263 11.2774 6.36924 11.2774Z" fill="#3DBB7C"/>
<path d="M12.2819 10.6138V3.38621C12.2819 3.01959 11.9849 2.72253 11.6183 2.72253C11.2516 2.72253 10.9546 3.01959 10.9546 3.38621V10.6138C10.9546 10.9804 11.2516 11.2774 11.6183 11.2774C11.9849 11.2774 12.2819 10.9804 12.2819 10.6138Z" fill="#3DBB7C"/>
<path d="M22.7805 10.6138V3.38621C22.7805 3.01959 22.4834 2.72253 22.1168 2.72253C21.7502 2.72253 21.4531 3.01959 21.4531 3.38621V10.6138C21.4531 10.9804 21.7502 11.2774 22.1168 11.2774C22.4834 11.2774 22.7805 10.9804 22.7805 10.6138Z" fill="#3DBB7C"/>
<path d="M28.0305 10.6138V3.38621C28.0305 3.01959 27.7334 2.72253 27.3668 2.72253C27.0002 2.72253 26.7031 3.01959 26.7031 3.38621V10.6138C26.7031 10.9804 27.0002 11.2774 27.3668 11.2774C27.7334 11.2774 28.0305 10.9804 28.0305 10.6138Z" fill="#3DBB7C"/>
<path d="M13.838 9.82852L14.2564 10.2583C15.0906 11.1153 16.4612 11.1348 17.3192 10.2997L19.5659 8.11288C20.22 7.47629 20.2975 6.36716 19.5534 5.64314L17.3191 3.46833C16.4634 2.63537 15.0894 2.65405 14.2564 3.50974L13.838 3.93962C13.5823 4.20235 13.5881 4.6225 13.8507 4.87806L15.9115 6.88403L13.8507 8.89C13.588 9.14564 13.5823 9.56579 13.838 9.82852ZM17.3259 7.35966C17.4542 7.2348 17.5267 7.06322 17.5267 6.88412C17.5267 6.70501 17.4543 6.53343 17.3259 6.40857L15.2538 4.39163C15.5789 4.1043 16.0774 4.11209 16.3933 4.4195L18.6277 6.59431C18.8091 6.77111 18.7883 7.01747 18.6401 7.16171L16.3934 9.34855C16.0774 9.65623 15.5789 9.66402 15.2538 9.37651L17.3259 7.35966Z" fill="#3DBB7C"/>
</svg>
