<svg width="17" height="17" viewBox="0 0 17 17" fill="none" xmlns="http://www.w3.org/2000/svg">
<g clip-path="url(#clip0)">
<path d="M10.7414 6.40647C10.6316 6.2968 10.4787 6.23389 10.3217 6.23389C10.1625 6.23389 10.0136 6.29513 9.90217 6.40647L7.82438 8.48421L7.10688 7.76661C6.99482 7.65489 6.84593 7.59336 6.68768 7.59336C6.52929 7.59336 6.3803 7.65499 6.26811 7.76709C6.15601 7.87923 6.09424 8.02832 6.09424 8.1868C6.09424 8.34543 6.15606 8.49452 6.26806 8.60647L7.40514 9.74365C7.51629 9.85456 7.66518 9.91562 7.82429 9.91562C7.82433 9.91562 7.82433 9.91562 7.82433 9.91562C7.98353 9.91562 8.13238 9.85451 8.24405 9.74322L10.7415 7.24586C10.9728 7.01454 10.9728 6.63808 10.7414 6.40647Z" fill="#2DBC53"/>
<path d="M15.4287 3.50357C15.4193 3.39546 15.3538 3.30021 15.2562 3.25278L8.63496 0.0311227C8.54974 -0.0103742 8.45013 -0.0103742 8.3649 0.0311227L1.74368 3.25273C1.64611 3.30021 1.58059 3.39541 1.57123 3.50352C1.56278 3.60066 1.37291 5.91547 2.10438 8.74271C2.53525 10.4081 3.19873 11.9022 4.07634 13.1833C5.17705 14.7901 6.61752 16.0625 8.35787 16.9654C8.40241 16.9885 8.45122 17 8.49998 17C8.54874 17 8.59755 16.9885 8.64208 16.9654C10.3824 16.0625 11.823 14.7901 12.9237 13.1833C13.8013 11.9022 14.4648 10.4081 14.8956 8.74271C15.627 5.91547 15.4371 3.60071 15.4287 3.50357ZM8.49993 11.9506C6.33545 11.9506 4.57454 10.1897 4.57454 8.02521C4.57454 5.86072 6.33545 4.09981 8.49993 4.09981C10.6644 4.09981 12.4253 5.86072 12.4253 8.02521C12.4253 10.1897 10.6644 11.9506 8.49993 11.9506Z" fill="#2DBC53"/>
</g>
<defs>
<clipPath id="clip0">
<rect width="17" height="17" fill="white"/>
</clipPath>
</defs>
</svg>
