<svg width="44" height="42" viewBox="0 0 44 42" fill="none" xmlns="http://www.w3.org/2000/svg">
<rect width="44" height="42" fill="#DCDCDC"/>
<g clip-path="url(#clip0)">
<rect width="1440" height="1234" transform="translate(-542 -108)" fill="#363740"/>
<path d="M-287 -108H898V1126H-287V-108Z" fill="#F7F8FC"/>
<g filter="url(#filter0_d)">
<rect x="-13" y="23" width="224" height="72" rx="4" fill="white"/>
</g>
<rect width="44" height="42" rx="4" fill="#FFF4D3"/>
<g clip-path="url(#clip1)">
<path d="M25.501 19.3584C29.1849 19.3584 32.1819 16.3621 32.1819 12.6792C32.1819 8.99621 29.1849 6 25.501 6C21.8171 6 18.8201 8.99626 18.8201 12.6792C18.8201 16.3622 21.8171 19.3584 25.501 19.3584ZM25.501 7.58203C28.3126 7.58203 30.5999 9.86865 30.5999 12.6792C30.5999 15.4898 28.3126 17.7764 25.501 17.7764C22.6895 17.7764 20.402 15.4898 20.402 12.6792C20.402 9.86865 22.6895 7.58203 25.501 7.58203Z" fill="#FDBC00"/>
<path d="M34.456 21.1447C33.6005 20.0433 32.0561 19.8361 30.9443 20.6074L27.9347 22.6208C27.5165 21.8421 26.6941 21.3112 25.7499 21.3112H23.6031C22.5194 20.2948 21.0726 19.7178 19.5803 19.7178C18.4603 19.7178 17.3707 20.0342 16.4296 20.6328C15.5816 21.1722 14.8879 21.9174 14.4112 22.7971L14.0082 23.0435L13.9038 22.7381C13.7625 22.3249 13.313 22.1043 12.8997 22.2455L8.53542 23.7368C8.12224 23.8779 7.90139 24.3278 8.04272 24.7412L10.6833 32.4648C10.8247 32.8783 11.2743 33.0985 11.6875 32.9574L16.0517 31.4663C16.4415 31.3331 16.6968 30.9076 16.5356 30.4362L23.4608 30.2219C25.3467 30.2194 27.1553 29.6402 28.6915 28.5467L33.9139 24.832C35.1112 23.9798 35.3584 22.3056 34.456 21.1447ZM11.9243 31.2046L9.79556 24.978L12.6628 23.9983C12.9716 24.9018 14.4728 29.2925 14.7916 30.225L11.9243 31.2046ZM32.9968 23.5429L27.7744 27.2576C26.504 28.1619 25.008 28.6398 23.4482 28.6398C23.4401 28.6398 23.4319 28.6399 23.4238 28.6402L16.0002 28.8699L14.5326 24.5772L15.4246 24.0317C15.4248 24.0316 15.425 24.0314 15.4252 24.0313C15.5565 23.9509 15.6591 23.833 15.7218 23.7053C16.4498 22.2215 17.9283 21.2997 19.5803 21.2997C20.7741 21.2997 21.8829 21.7776 22.7025 22.6454C22.8534 22.8053 23.0702 22.8931 23.2775 22.8931H25.7499C26.2441 22.8931 26.6462 23.295 26.6462 23.7889C26.6462 24.2777 26.2508 24.6847 25.7499 24.6847H21.2871C20.8502 24.6847 20.4961 25.0389 20.4961 25.4757C20.4961 25.9126 20.8503 26.2668 21.2871 26.2668H25.7499C26.4124 26.2668 27.0348 26.0088 27.502 25.5409C27.8289 25.2142 28.0528 24.8122 28.1585 24.3743L31.8299 21.9181C31.8344 21.9152 31.8387 21.9122 31.8431 21.9091C32.2761 21.6067 32.8758 21.689 33.2069 22.1152C33.556 22.5645 33.4606 23.2129 32.9968 23.5429Z" fill="#FDBC00"/>
<path d="M26.9699 11.1328C26.9499 11.1115 26.9242 11.1009 26.8931 11.1009H26.3219C26.284 10.9044 26.2127 10.7339 26.108 10.5895H26.8864C26.9176 10.5895 26.9432 10.5789 26.9633 10.5576C26.9832 10.5363 26.9932 10.5091 26.9932 10.4759V10.1136C26.9932 10.0805 26.9832 10.0533 26.9633 10.032C26.9431 10.0107 26.9176 10 26.8864 10H24.1069C24.0757 10 24.0501 10.0107 24.03 10.0319C24.0101 10.0533 24 10.0805 24 10.1136V10.5859C24 10.6167 24.0106 10.6433 24.0317 10.6658C24.0529 10.6883 24.0779 10.6995 24.1069 10.6995H24.5913C25.0612 10.6995 25.3597 10.8333 25.4866 11.1008H24.1069C24.0757 11.1008 24.0501 11.1114 24.03 11.1327C24.0101 11.1541 24 11.1813 24 11.2144V11.5767C24 11.6098 24.01 11.637 24.03 11.6583C24.0501 11.6796 24.0757 11.6902 24.1069 11.6902H25.5334C25.4844 11.8844 25.3703 12.0324 25.191 12.1342C25.0116 12.236 24.7751 12.2869 24.4811 12.2869H24.1069C24.0779 12.2869 24.0529 12.2981 24.0317 12.3206C24.0106 12.3431 24 12.3698 24 12.4005V12.8515C24 12.8824 24.01 12.9084 24.03 12.9297C24.4576 13.4126 25.0122 14.0885 25.6937 14.9574C25.7138 14.9858 25.7416 15 25.7773 15H26.4287C26.4755 15 26.5078 14.9788 26.5256 14.9361C26.5478 14.8934 26.5435 14.8532 26.5122 14.8153C25.862 13.9677 25.3508 13.3333 24.9788 12.9119C25.3575 12.8646 25.6648 12.7343 25.9009 12.5213C26.137 12.3082 26.2806 12.0312 26.3319 11.6903H26.8931C26.9242 11.6903 26.9499 11.6797 26.9699 11.6584C26.99 11.6371 27 11.6099 27 11.5767V11.2145C27 11.1813 26.99 11.1541 26.9699 11.1328Z" fill="#FDBC00"/>
</g>
</g>
<defs>
<filter id="filter0_d" x="-17" y="19" width="232" height="80" filterUnits="userSpaceOnUse" color-interpolation-filters="sRGB">
<feFlood flood-opacity="0" result="BackgroundImageFix"/>
<feColorMatrix in="SourceAlpha" type="matrix" values="0 0 0 0 0 0 0 0 0 0 0 0 0 0 0 0 0 0 127 0"/>
<feOffset/>
<feGaussianBlur stdDeviation="2"/>
<feColorMatrix type="matrix" values="0 0 0 0 0 0 0 0 0 0 0 0 0 0 0 0 0 0 0.25 0"/>
<feBlend mode="normal" in2="BackgroundImageFix" result="effect1_dropShadow"/>
<feBlend mode="normal" in="SourceGraphic" in2="effect1_dropShadow" result="shape"/>
</filter>
<clipPath id="clip0">
<rect width="1440" height="1234" fill="white" transform="translate(-542 -108)"/>
</clipPath>
<clipPath id="clip1">
<rect width="27" height="27" fill="white" transform="translate(8 6)"/>
</clipPath>
</defs>
</svg>
