<svg width="44" height="42" viewBox="0 0 44 42" fill="none" xmlns="http://www.w3.org/2000/svg">
<rect width="44" height="42" fill="#DCDCDC"/>
<g clip-path="url(#clip0)">
<rect width="1440" height="1234" transform="translate(-307 -109)" fill="#363740"/>
<path d="M-52 -109H1133V1125H-52V-109Z" fill="#F7F8FC"/>
<g filter="url(#filter0_d)">
<rect x="-19" y="22" width="224" height="72" rx="4" fill="white"/>
</g>
<rect width="44" height="42" rx="4" fill="#FFC2D7"/>
<path d="M18.7734 30.1964C18.766 30.1602 18.7552 30.1245 18.7411 30.0899C18.7269 30.0559 18.7093 30.0231 18.689 29.9925C18.6686 29.9613 18.6448 29.9325 18.6187 29.9064C18.5927 29.8803 18.5638 29.8566 18.5326 29.8362C18.502 29.8158 18.4692 29.7982 18.4346 29.7841C18.4007 29.7699 18.365 29.7586 18.3287 29.7518C18.2557 29.737 18.1803 29.737 18.1078 29.7518C18.0716 29.7586 18.0359 29.7699 18.0013 29.7841C17.9673 29.7982 17.9345 29.8158 17.9039 29.8362C17.8728 29.8566 17.8439 29.8803 17.8178 29.9064C17.7918 29.9325 17.768 29.9613 17.7476 29.9925C17.7266 30.0231 17.7096 30.0559 17.6955 30.0899C17.6813 30.1245 17.67 30.1602 17.6632 30.1964C17.6558 30.2327 17.6519 30.27 17.6519 30.3069C17.6519 30.3437 17.6558 30.3811 17.6632 30.4173C17.67 30.4536 17.6813 30.4892 17.6955 30.5232C17.7096 30.5578 17.7266 30.5906 17.7476 30.6212C17.768 30.6524 17.7918 30.6812 17.8178 30.7073C17.8439 30.7334 17.8728 30.7571 17.9039 30.7775C17.9345 30.798 17.9673 30.8155 18.0013 30.8297C18.0359 30.8439 18.0716 30.8552 18.1078 30.862C18.1441 30.8694 18.1815 30.8733 18.2183 30.8733C18.2551 30.8733 18.2925 30.8694 18.3287 30.862C18.365 30.8552 18.4007 30.8439 18.4346 30.8297C18.4692 30.8155 18.502 30.7979 18.5326 30.7775C18.5638 30.7571 18.5927 30.7334 18.6187 30.7073C18.6448 30.6812 18.6686 30.6524 18.689 30.6212C18.7093 30.5906 18.7269 30.5578 18.7411 30.5232C18.7552 30.4892 18.766 30.4536 18.7734 30.4173C18.7807 30.3811 18.7847 30.3437 18.7847 30.3069C18.7847 30.27 18.7807 30.2327 18.7734 30.1964Z" fill="#EC407A"/>
<path d="M35.0546 30.3714C35.0524 30.3657 35.0501 30.3601 35.0477 30.3545C34.5264 29.1347 33.3037 28.6838 31.8568 29.178L27.9107 30.2692C27.6825 29.5783 27.1135 28.9904 26.3088 28.6918C26.3038 28.69 26.2989 28.6882 26.2938 28.6865L21.9562 27.2142C21.5951 26.7476 20.4642 25.5535 18.3468 25.5535C16.8671 25.5535 15.558 26.5686 14.8091 27.6751H9.56641C9.25358 27.6751 9 27.9287 9 28.2415V35.3826C9 35.6955 9.25358 35.9491 9.56641 35.9491H12.9341C13.247 35.9491 13.5005 35.6955 13.5005 35.3826V34.8936H15.0799C15.3927 34.8936 15.6463 34.64 15.6463 34.3272V34.1642C16.5669 34.2445 16.8697 34.4191 17.7153 34.9067C18.3655 35.2817 19.3483 35.8484 21.1181 36.6441C21.1263 36.6478 21.1347 36.6513 21.143 36.6546C21.4827 36.7882 22.1467 36.9981 22.9653 36.9981C23.5351 36.9981 24.18 36.8963 24.8419 36.5963L33.5641 33.4733C33.5796 33.4678 33.5949 33.4615 33.6099 33.4546C34.4435 33.0711 35.6857 31.9902 35.0546 30.3714ZM12.3677 34.8162H10.1328V28.8078H12.3677V34.8162ZM14.5135 33.7607H13.5005V28.8078H14.5135V33.7607ZM33.1573 32.4157L24.4389 35.5372C24.4313 35.5399 24.4209 35.544 24.4134 35.5471C24.4057 35.5502 24.3981 35.5535 24.3906 35.5569C23.1763 36.115 22.0222 35.7809 21.5698 35.605C19.8603 34.8358 18.9478 34.3096 18.2812 33.9252C17.3543 33.3907 16.9077 33.1331 15.6463 33.029V28.467C16.1832 27.587 17.2244 26.6862 18.3469 26.6862C20.2719 26.6862 21.0876 27.9383 21.1196 27.9888C21.1888 28.1013 21.2951 28.1861 21.4201 28.2285L25.9217 29.7564C26.6406 30.0262 27.0206 30.6419 26.846 31.2559C26.7654 31.5394 26.5791 31.7746 26.3216 31.9181C26.0663 32.0603 25.7712 32.0955 25.49 32.0176L20.4153 30.4095C20.1169 30.315 19.7987 30.4801 19.7042 30.7783C19.6097 31.0766 19.7749 31.3949 20.0731 31.4894L25.1566 33.1003C25.162 33.102 25.1673 33.1037 25.1728 33.1052C25.3757 33.1629 25.5823 33.1915 25.7877 33.1915C26.1637 33.1915 26.5356 33.0957 26.873 32.9077C27.3949 32.6169 27.7722 32.1403 27.9356 31.5657C27.9486 31.5198 27.9601 31.4739 27.9702 31.4281L32.223 30.2499C32.8372 30.0401 33.6435 29.9645 34.0025 30.7913C34.374 31.762 33.4083 32.2959 33.1573 32.4157Z" fill="#EC407A"/>
<path d="M29.3379 15.4498C29.3305 15.4136 29.3198 15.3779 29.305 15.3433C29.2909 15.3093 29.2739 15.2765 29.2529 15.2459C29.2325 15.2148 29.2087 15.1859 29.1827 15.1598C29.1566 15.1338 29.1277 15.11 29.0966 15.0896C29.066 15.0692 29.0332 15.0516 28.9992 15.0375C28.9646 15.0233 28.9289 15.012 28.8932 15.0052C28.8202 14.9905 28.7448 14.9905 28.6718 15.0052C28.6355 15.012 28.5998 15.0233 28.5659 15.0375C28.5313 15.0516 28.4985 15.0692 28.4679 15.0896C28.4367 15.11 28.4078 15.1338 28.3818 15.1598C28.3557 15.1859 28.3319 15.2148 28.3115 15.2459C28.2912 15.2765 28.2736 15.3093 28.2594 15.3433C28.2453 15.3779 28.2339 15.4136 28.2271 15.4498C28.2198 15.4861 28.2158 15.5235 28.2158 15.5603C28.2158 15.5971 28.2198 15.6345 28.2271 15.6707C28.2339 15.707 28.2453 15.7427 28.2594 15.7766C28.2736 15.8112 28.2912 15.844 28.3115 15.8746C28.3319 15.9058 28.3557 15.9347 28.3818 15.9607C28.4078 15.9868 28.4367 16.0106 28.4679 16.031C28.4985 16.0513 28.5313 16.0689 28.5659 16.0831C28.5998 16.0972 28.6355 16.108 28.6718 16.1154C28.708 16.1227 28.7454 16.1267 28.7822 16.1267C28.819 16.1267 28.8564 16.1227 28.8932 16.1154C28.9289 16.108 28.9646 16.0972 28.9992 16.0831C29.0332 16.0689 29.066 16.0513 29.0966 16.031C29.1277 16.0106 29.1566 15.9868 29.1827 15.9607C29.2087 15.9347 29.2325 15.9058 29.2529 15.8746C29.2739 15.844 29.2909 15.8112 29.305 15.7766C29.3198 15.7427 29.3305 15.707 29.3379 15.6707C29.3452 15.6345 29.3486 15.5971 29.3486 15.5603C29.3486 15.5235 29.3452 15.4861 29.3379 15.4498Z" fill="#EC407A"/>
<path d="M37.4338 9.91831H34.0661C33.7533 9.91831 33.4997 10.1719 33.4997 10.4847V10.9738H31.9204C31.6075 10.9738 31.354 11.2273 31.354 11.5402V11.7032C30.4333 11.6228 30.1305 11.4482 29.285 10.9607C28.6348 10.5857 27.652 10.019 25.8821 9.22327C25.8739 9.21953 25.8656 9.21607 25.8572 9.21279C25.2811 8.98611 23.7712 8.54012 22.1586 9.27096L19.8793 10.087L17.9581 8.16589C17.7369 7.9447 17.3783 7.9447 17.1571 8.16589L10.8497 14.4733C10.6456 14.6774 10.6065 15.0312 10.8497 15.2744L21.6277 26.0525C21.8002 26.225 22.2041 26.2772 22.4288 26.0525L28.1873 20.2941C28.337 20.307 28.4923 20.314 28.6534 20.314C30.1332 20.314 31.4421 19.2988 32.191 18.1924H37.4338C37.7467 18.1924 38.0002 17.9388 38.0002 17.626V10.4847C38.0002 10.1719 37.7467 9.91831 37.4338 9.91831ZM17.5576 9.36742L18.8485 10.6584C18.4648 10.8957 18.0211 11.0227 17.5576 11.0227C17.094 11.0227 16.6503 10.8958 16.2666 10.6584L17.5576 9.36742ZM13.3422 16.1648L12.0512 14.8738L13.3422 13.5828C13.5795 13.9666 13.7065 14.4102 13.7065 14.8738C13.7065 15.3374 13.5796 15.781 13.3422 16.1648ZM22.0283 24.8509L20.7376 23.5601C21.5256 23.0738 22.5309 23.0738 23.319 23.5601L22.0283 24.8509ZM24.1351 22.7442C22.8834 21.8362 21.1732 21.8362 19.9215 22.7442L14.1582 16.9808C14.6006 16.3725 14.8394 15.6417 14.8394 14.8738C14.8394 14.1058 14.6006 13.3751 14.1582 12.7668L15.4506 11.4745C16.059 11.9168 16.7896 12.1556 17.5576 12.1556C18.3256 12.1556 19.0563 11.9168 19.6646 11.4745L20.8897 12.6996C20.6254 12.7386 20.3676 12.8257 20.1272 12.9597C19.7212 13.1859 19.4027 13.5247 19.2043 13.9345C18.5654 14.0528 17.9739 14.3622 17.5099 14.8261C16.251 16.085 16.251 18.1333 17.5099 19.3922C18.1393 20.0216 18.9661 20.3364 19.793 20.3364C20.6198 20.3364 21.4466 20.0217 22.0761 19.3922C22.4856 18.9827 22.7725 18.4794 22.9162 17.9309L24.8286 18.5799C24.6133 19.5773 24.8338 20.6265 25.4286 21.4506L24.1351 22.7442ZM20.6914 17.1756C20.6964 17.1774 20.7014 17.1792 20.7064 17.1809L21.839 17.5653C21.7535 17.9513 21.5599 18.3063 21.275 18.5912C20.4578 19.4083 19.1281 19.4084 18.311 18.5912C17.4938 17.7741 17.4938 16.4444 18.311 15.6272C18.5081 15.43 18.7407 15.2758 18.9942 15.1713C19.0988 16.0415 19.7253 16.817 20.6914 17.1756ZM26.2447 20.6344C26.0261 20.2782 25.9024 19.8715 25.8829 19.4565C26.1542 19.6527 26.4858 19.8449 26.8818 19.9974L26.2447 20.6344ZM31.3539 17.4002C30.8171 18.2803 29.7759 19.181 28.6534 19.181C28.4433 19.181 28.2465 19.1661 28.0625 19.1395C28.0617 19.1393 28.061 19.1392 28.0603 19.1391C26.837 18.9614 26.179 18.2662 25.9622 17.9909C25.9506 17.9739 25.9014 17.9095 25.8941 17.8988C25.8281 17.7809 25.7199 17.6861 25.5819 17.6392L21.0785 16.1108C20.3598 15.8411 19.9799 15.2257 20.1541 14.6119C20.1542 14.6115 20.1543 14.6111 20.1544 14.6107C20.1546 14.6102 20.1547 14.6097 20.1548 14.6093C20.2357 14.3266 20.4216 14.0922 20.6786 13.9491C20.9338 13.8068 21.2288 13.7716 21.5102 13.8496L26.5849 15.4577C26.8832 15.5523 27.2015 15.387 27.296 15.0888C27.3904 14.7906 27.2253 14.4723 26.9271 14.3777L22.8911 13.0988L22.8559 13.0635C22.8556 13.0632 22.8552 13.0628 22.8548 13.0625L20.7653 10.973L22.5613 10.3299C22.5674 10.3277 22.5748 10.3249 22.5809 10.3224C22.5824 10.3218 22.5853 10.3207 22.5868 10.3201C22.5945 10.317 22.6021 10.3137 22.6096 10.3102C23.8238 9.75218 24.9779 10.0862 25.4303 10.2621C27.1399 11.0314 28.0524 11.5575 28.7191 11.9419C29.6459 12.4765 30.0926 12.734 31.3539 12.8382V17.4002ZM33.4997 17.0595H32.4868V12.1066H33.4997V17.0595ZM36.8674 17.0595H34.6325V11.0511H36.8674V17.0595Z" fill="#EC407A"/>
</g>
<defs>
<filter id="filter0_d" x="-23" y="18" width="232" height="80" filterUnits="userSpaceOnUse" color-interpolation-filters="sRGB">
<feFlood flood-opacity="0" result="BackgroundImageFix"/>
<feColorMatrix in="SourceAlpha" type="matrix" values="0 0 0 0 0 0 0 0 0 0 0 0 0 0 0 0 0 0 127 0"/>
<feOffset/>
<feGaussianBlur stdDeviation="2"/>
<feColorMatrix type="matrix" values="0 0 0 0 0 0 0 0 0 0 0 0 0 0 0 0 0 0 0.25 0"/>
<feBlend mode="normal" in2="BackgroundImageFix" result="effect1_dropShadow"/>
<feBlend mode="normal" in="SourceGraphic" in2="effect1_dropShadow" result="shape"/>
</filter>
<clipPath id="clip0">
<rect width="1440" height="1234" fill="white" transform="translate(-307 -109)"/>
</clipPath>
</defs>
</svg>
