<svg width="44" height="44" viewBox="0 0 44 44" fill="none" xmlns="http://www.w3.org/2000/svg">
<g clip-path="url(#clip0)">
<path d="M1.22363 37.8975V38.9299C1.22363 39.3577 3.03251 40.405 6.38631 40.405C9.73974 40.405 11.549 39.3577 11.549 38.9299V37.8975C9.9288 38.6296 8.16314 38.9825 6.38631 38.9299C4.60912 38.9825 2.84345 38.6296 1.22363 37.8975Z" fill="#4749A0"/>
<path d="M11.549 34.9473C9.9288 35.6794 8.16314 36.0323 6.38631 35.9797C4.60912 36.0323 2.84345 35.6794 1.22363 34.9473V35.9797C1.22363 36.4075 3.03251 37.4548 6.38631 37.4548C9.73974 37.4548 11.549 36.4075 11.549 35.9797V34.9473Z" fill="#4749A0"/>
<path d="M6.38631 43.3552C9.73974 43.3552 11.549 42.3079 11.549 41.8801V40.8477C9.9288 41.5798 8.16314 41.9327 6.38631 41.8801C4.60912 41.9327 2.84345 41.5798 1.22363 40.8477V41.8801C1.22363 42.3079 3.03251 43.3552 6.38631 43.3552Z" fill="#4749A0"/>
<path d="M11.549 33.0288C11.549 32.2142 9.23737 31.5537 6.38631 31.5537C3.53488 31.5537 1.22363 32.2142 1.22363 33.0288C1.22363 33.8434 3.53488 34.5038 6.38631 34.5038C9.23737 34.5038 11.549 33.8434 11.549 33.0288Z" fill="#4749A0"/>
<path d="M16.7117 37.8975V38.9299C16.7117 39.3577 18.5206 40.405 21.8743 40.405C25.2278 40.405 27.037 39.3577 27.037 38.9299V37.8975C25.4168 38.6296 23.6512 38.9825 21.8743 38.9299C20.0972 38.9825 18.3315 38.6296 16.7117 37.8975Z" fill="#4749A0"/>
<path d="M21.8743 43.3552C25.2278 43.3552 27.037 42.3079 27.037 41.8801V40.8477C25.4168 41.5798 23.6512 41.9327 21.8743 41.8801C20.0972 41.9327 18.3315 41.5798 16.7117 40.8477V41.8801C16.7117 42.3079 18.5206 43.3552 21.8743 43.3552Z" fill="#4749A0"/>
<path d="M27.037 31.9971C25.4168 32.7292 23.6512 33.0821 21.8743 33.0295C20.0972 33.0821 18.3315 32.7292 16.7117 31.9971V33.0295C16.7117 33.4574 18.5206 34.5046 21.8743 34.5046C25.2278 34.5046 27.037 33.4574 27.037 33.0295V31.9971Z" fill="#4749A0"/>
<path d="M27.037 34.9473C25.4168 35.6794 23.6512 36.0323 21.8743 35.9797C20.0972 36.0323 18.3315 35.6794 16.7117 34.9473V35.9797C16.7117 36.4075 18.5206 37.4548 21.8743 37.4548C25.2278 37.4548 27.037 36.4075 27.037 35.9797V34.9473Z" fill="#4749A0"/>
<path d="M27.037 27.1293C27.037 26.3148 24.7254 25.6543 21.8743 25.6543C19.0229 25.6543 16.7117 26.3148 16.7117 27.1293C16.7117 27.9439 19.0229 28.6044 21.8743 28.6044C24.7254 28.6044 27.037 27.9439 27.037 27.1293Z" fill="#4749A0"/>
<path d="M27.037 29.0469C25.4168 29.779 23.6512 30.1319 21.8743 30.0793C20.0972 30.1319 18.3315 29.779 16.7117 29.0469V30.0793C16.7117 30.5072 18.5206 31.5544 21.8743 31.5544C25.2278 31.5544 27.037 30.5072 27.037 30.0793V29.0469Z" fill="#4749A0"/>
<path d="M42.5251 31.9971C40.9049 32.7292 39.1392 33.0821 37.3624 33.0295C35.5852 33.0821 33.8195 32.7292 32.1997 31.9971V33.0295C32.1997 33.4574 34.0086 34.5046 37.3624 34.5046C40.7158 34.5046 42.5251 33.4574 42.5251 33.0295V31.9971Z" fill="#4749A0"/>
<path d="M42.5251 26.0967C40.9049 26.8288 39.1392 27.1817 37.3624 27.1291C35.5852 27.1817 33.8195 26.8288 32.1997 26.0967V27.1291C32.1997 27.557 34.0086 28.6042 37.3624 28.6042C40.7158 28.6042 42.5251 27.557 42.5251 27.1291V26.0967Z" fill="#4749A0"/>
<path d="M42.5251 29.0469C40.9049 29.779 39.1392 30.1319 37.3624 30.0793C35.5852 30.1319 33.8195 29.779 32.1997 29.0469V30.0793C32.1997 30.5072 34.0086 31.5544 37.3624 31.5544C40.7158 31.5544 42.5251 30.5072 42.5251 30.0793V29.0469Z" fill="#4749A0"/>
<path d="M42.5251 34.9473C40.9049 35.6794 39.1392 36.0323 37.3624 35.9797C35.5852 36.0323 33.8195 35.6794 32.1997 34.9473V35.9797C32.1997 36.4075 34.0086 37.4548 37.3624 37.4548C40.7158 37.4548 42.5251 36.4075 42.5251 35.9797V34.9473Z" fill="#4749A0"/>
<path d="M32.1997 37.8975V38.9299C32.1997 39.3577 34.0086 40.405 37.3624 40.405C40.7158 40.405 42.5251 39.3577 42.5251 38.9299V37.8975C40.9049 38.6296 39.1392 38.9825 37.3624 38.9299C35.5852 38.9825 33.8195 38.6296 32.1997 37.8975Z" fill="#4749A0"/>
<path d="M42.5251 18.2788C42.5251 17.4642 40.2135 16.8037 37.3624 16.8037C34.511 16.8037 32.1997 17.4642 32.1997 18.2788C32.1997 19.0934 34.511 19.7538 37.3624 19.7538C40.2135 19.7538 42.5251 19.0934 42.5251 18.2788Z" fill="#4749A0"/>
<path d="M42.5251 23.1465C40.9049 23.8786 39.1392 24.2315 37.3624 24.1789C35.5852 24.2315 33.8195 23.8786 32.1997 23.1465V24.1789C32.1997 24.6068 34.0086 25.654 37.3624 25.654C40.7158 25.654 42.5251 24.6068 42.5251 24.1789V23.1465Z" fill="#4749A0"/>
<path d="M37.3624 43.3552C40.7158 43.3552 42.5251 42.3079 42.5251 41.8801V40.8477C40.9049 41.5798 39.1392 41.9327 37.3624 41.8801C35.5852 41.9327 33.8195 41.5798 32.1997 40.8477V41.8801C32.1997 42.3079 34.0086 43.3552 37.3624 43.3552Z" fill="#4749A0"/>
<path d="M42.5251 20.1963C40.9049 20.9284 39.1392 21.2813 37.3624 21.2288C35.5852 21.2813 33.8195 20.9284 32.1997 20.1963V21.2288C32.1997 21.6566 34.0086 22.7038 37.3624 22.7038C40.7158 22.7038 42.5251 21.6566 42.5251 21.2288V20.1963Z" fill="#4749A0"/>
<path d="M35.8874 0.578125V2.05317H41.4822L27.4692 16.0661H12.0093L0 26.5737L0.971963 27.6843L12.5639 17.5412H28.08L42.5251 3.09608V8.6909H44.0001V0.578125H35.8874Z" fill="#2DBC53"/>
</g>
<defs>
<clipPath id="clip0">
<rect width="44" height="44" fill="white"/>
</clipPath>
</defs>
</svg>
