<svg width="55" height="55" viewBox="0 0 55 55" fill="none" xmlns="http://www.w3.org/2000/svg">
<path d="M6.55273 11.3867V27.5C6.55273 35.5092 13.0455 42.002 21.0547 42.002H27.5V35.5566H21.0547C16.6052 35.5566 12.998 31.9495 12.998 27.5V11.3867H17.832L9.77539 0L1.71875 11.3867H6.55273Z" fill="#1BB7EA"/>
<path d="M48.4473 43.6133V27.5C48.4473 19.4908 41.9545 12.998 33.9453 12.998H27.5V19.4434H33.9453C38.3948 19.4434 42.002 23.0505 42.002 27.5V43.6133H37.168L45.2246 55L53.2812 43.6133H48.4473Z" fill="#1F4254"/>
<path d="M27.5 42.002C35.5092 42.002 42.002 35.5092 42.002 27.5C42.002 19.4908 35.5092 12.998 27.5 12.998C19.4908 12.998 12.998 19.4908 12.998 27.5C12.998 35.5092 19.4908 42.002 27.5 42.002Z" fill="#312968"/>
<path d="M42.002 27.5C42.002 19.4907 35.5093 12.998 27.5 12.998V42.002C35.5093 42.002 42.002 35.5093 42.002 27.5Z" fill="#312968"/>
<path d="M31.9197 23.9453C31.8663 23.8899 31.798 23.8622 31.7149 23.8622H30.1916C30.0906 23.3515 29.9005 22.9082 29.6214 22.5327H31.697C31.7803 22.5327 31.8484 22.505 31.902 22.4498C31.9552 22.3944 31.9819 22.3236 31.9819 22.2374V21.2954C31.9819 21.2092 31.9552 21.1385 31.902 21.0831C31.8484 21.0278 31.7802 21 31.697 21H24.285C24.2019 21 24.1336 21.0278 24.0801 21.083C24.0268 21.1385 24 21.2092 24 21.2954V22.5234C24 22.6034 24.0282 22.6726 24.0846 22.7311C24.141 22.7896 24.2078 22.8188 24.285 22.8188H25.5768C26.8299 22.8188 27.6257 23.1665 27.9642 23.8621H24.285C24.2019 23.8621 24.1335 23.8897 24.0801 23.9451C24.0268 24.0006 24 24.0713 24 24.1575V25.0993C24 25.1855 24.0267 25.2563 24.0801 25.3116C24.1336 25.367 24.202 25.3946 24.285 25.3946H28.0891C27.9585 25.8995 27.654 26.2841 27.1759 26.5488C26.6977 26.8135 26.0668 26.9459 25.2828 26.9459H24.285C24.2078 26.9459 24.141 26.9752 24.0846 27.0336C24.0282 27.0921 24 27.1614 24 27.2413V28.414C24 28.4942 24.0267 28.5618 24.0801 28.6172C25.2204 29.8728 26.6993 31.63 28.5166 33.8892C28.5701 33.9631 28.6443 34 28.7394 34H30.4765C30.6013 34 30.6875 33.9448 30.7349 33.8337C30.7943 33.723 30.7826 33.6183 30.6992 33.5198C28.9652 31.3161 27.6021 29.6665 26.6102 28.5709C27.6199 28.4479 28.4395 28.1092 29.0691 27.5554C29.6986 27.0014 30.0816 26.2811 30.2183 25.3948H31.7149C31.798 25.3948 31.8664 25.3672 31.9197 25.3117C31.9732 25.2565 32 25.1856 32 25.0995V24.1578C32 24.0714 31.9732 24.0007 31.9197 23.9453Z" fill="white"/>
</svg>
